<mxfile host="app.diagrams.net" modified="2020-10-28T08:30:00.248Z" agent="5.0 (X11; Linux x86_64) AppleWebKit/537.36 (KHTML, like Gecko) Chrome/86.0.4240.111 Safari/537.36" etag="BVkOKpqWUu2Ciipo9Pra" version="13.8.5" type="gitlab" pages="2">
  <diagram id="XJyPl12FSyt3wE--pX5Z" name="revision">
    <mxGraphModel dx="1102" dy="517" grid="1" gridSize="10" guides="1" tooltips="1" connect="1" arrows="1" fold="1" page="1" pageScale="1" pageWidth="850" pageHeight="1100" math="0" shadow="0">
      <root>
        <mxCell id="0" />
        <mxCell id="1" parent="0" />
        <mxCell id="exWmX4aVa_3qpyDqMsP1-3" value="" style="edgeStyle=orthogonalEdgeStyle;rounded=0;orthogonalLoop=1;jettySize=auto;html=1;" edge="1" parent="1" source="exWmX4aVa_3qpyDqMsP1-1" target="exWmX4aVa_3qpyDqMsP1-2">
          <mxGeometry relative="1" as="geometry" />
        </mxCell>
        <mxCell id="exWmX4aVa_3qpyDqMsP1-1" value="&lt;font style=&quot;font-size: 25px&quot;&gt;10 30 20 50 70&lt;/font&gt;" style="text;html=1;strokeColor=none;fillColor=none;align=center;verticalAlign=middle;whiteSpace=wrap;rounded=0;" vertex="1" parent="1">
          <mxGeometry x="310" y="80" width="240" height="20" as="geometry" />
        </mxCell>
        <mxCell id="exWmX4aVa_3qpyDqMsP1-2" value="MS" style="rounded=0;whiteSpace=wrap;html=1;fillColor=#dae8fc;strokeColor=#6c8ebf;" vertex="1" parent="1">
          <mxGeometry x="370" y="140" width="120" height="50" as="geometry" />
        </mxCell>
        <mxCell id="exWmX4aVa_3qpyDqMsP1-6" value="" style="edgeStyle=orthogonalEdgeStyle;rounded=0;orthogonalLoop=1;jettySize=auto;html=1;" edge="1" parent="1" source="exWmX4aVa_3qpyDqMsP1-7" target="exWmX4aVa_3qpyDqMsP1-8">
          <mxGeometry relative="1" as="geometry" />
        </mxCell>
        <mxCell id="exWmX4aVa_3qpyDqMsP1-7" value="&lt;font style=&quot;font-size: 25px&quot;&gt;10 30 20 50 70&lt;/font&gt;" style="text;html=1;strokeColor=none;fillColor=none;align=center;verticalAlign=middle;whiteSpace=wrap;rounded=0;" vertex="1" parent="1">
          <mxGeometry x="505" y="240" width="240" height="20" as="geometry" />
        </mxCell>
        <mxCell id="exWmX4aVa_3qpyDqMsP1-14" value="" style="edgeStyle=orthogonalEdgeStyle;rounded=0;orthogonalLoop=1;jettySize=auto;html=1;" edge="1" parent="1" source="exWmX4aVa_3qpyDqMsP1-8" target="exWmX4aVa_3qpyDqMsP1-11">
          <mxGeometry relative="1" as="geometry">
            <Array as="points">
              <mxPoint x="625" y="370" />
              <mxPoint x="525" y="370" />
            </Array>
          </mxGeometry>
        </mxCell>
        <mxCell id="exWmX4aVa_3qpyDqMsP1-8" value="Split" style="rounded=0;whiteSpace=wrap;html=1;" vertex="1" parent="1">
          <mxGeometry x="565" y="300" width="120" height="50" as="geometry" />
        </mxCell>
        <mxCell id="exWmX4aVa_3qpyDqMsP1-15" value="" style="edgeStyle=orthogonalEdgeStyle;rounded=0;orthogonalLoop=1;jettySize=auto;html=1;exitX=0.5;exitY=1;exitDx=0;exitDy=0;" edge="1" parent="1" source="exWmX4aVa_3qpyDqMsP1-8" target="exWmX4aVa_3qpyDqMsP1-12">
          <mxGeometry relative="1" as="geometry">
            <mxPoint x="725" y="390" as="sourcePoint" />
            <Array as="points">
              <mxPoint x="625" y="370" />
              <mxPoint x="725" y="370" />
            </Array>
          </mxGeometry>
        </mxCell>
        <mxCell id="exWmX4aVa_3qpyDqMsP1-18" value="" style="edgeStyle=orthogonalEdgeStyle;rounded=0;orthogonalLoop=1;jettySize=auto;html=1;" edge="1" parent="1" source="exWmX4aVa_3qpyDqMsP1-11" target="exWmX4aVa_3qpyDqMsP1-16">
          <mxGeometry relative="1" as="geometry" />
        </mxCell>
        <mxCell id="exWmX4aVa_3qpyDqMsP1-11" value="&lt;font style=&quot;font-size: 25px&quot;&gt;10 30 20&lt;/font&gt;" style="text;html=1;strokeColor=none;fillColor=none;align=center;verticalAlign=middle;whiteSpace=wrap;rounded=0;" vertex="1" parent="1">
          <mxGeometry x="425" y="400" width="200" height="20" as="geometry" />
        </mxCell>
        <mxCell id="exWmX4aVa_3qpyDqMsP1-19" value="" style="edgeStyle=orthogonalEdgeStyle;rounded=0;orthogonalLoop=1;jettySize=auto;html=1;" edge="1" parent="1" source="exWmX4aVa_3qpyDqMsP1-12" target="exWmX4aVa_3qpyDqMsP1-17">
          <mxGeometry relative="1" as="geometry" />
        </mxCell>
        <mxCell id="exWmX4aVa_3qpyDqMsP1-12" value="&lt;font style=&quot;font-size: 25px&quot;&gt;50 70&lt;/font&gt;" style="text;html=1;strokeColor=none;fillColor=none;align=center;verticalAlign=middle;whiteSpace=wrap;rounded=0;" vertex="1" parent="1">
          <mxGeometry x="675" y="400" width="100" height="20" as="geometry" />
        </mxCell>
        <mxCell id="exWmX4aVa_3qpyDqMsP1-21" value="" style="edgeStyle=orthogonalEdgeStyle;rounded=0;orthogonalLoop=1;jettySize=auto;html=1;" edge="1" parent="1" source="exWmX4aVa_3qpyDqMsP1-16" target="exWmX4aVa_3qpyDqMsP1-20">
          <mxGeometry relative="1" as="geometry" />
        </mxCell>
        <mxCell id="exWmX4aVa_3qpyDqMsP1-16" value="MS" style="rounded=0;whiteSpace=wrap;html=1;fillColor=#dae8fc;strokeColor=#6c8ebf;" vertex="1" parent="1">
          <mxGeometry x="465" y="450" width="120" height="50" as="geometry" />
        </mxCell>
        <mxCell id="exWmX4aVa_3qpyDqMsP1-23" value="" style="edgeStyle=orthogonalEdgeStyle;rounded=0;orthogonalLoop=1;jettySize=auto;html=1;" edge="1" parent="1" source="exWmX4aVa_3qpyDqMsP1-17" target="exWmX4aVa_3qpyDqMsP1-22">
          <mxGeometry relative="1" as="geometry" />
        </mxCell>
        <mxCell id="exWmX4aVa_3qpyDqMsP1-17" value="MS" style="rounded=0;whiteSpace=wrap;html=1;fillColor=#dae8fc;strokeColor=#6c8ebf;" vertex="1" parent="1">
          <mxGeometry x="665" y="450" width="120" height="50" as="geometry" />
        </mxCell>
        <mxCell id="exWmX4aVa_3qpyDqMsP1-25" style="edgeStyle=orthogonalEdgeStyle;rounded=0;orthogonalLoop=1;jettySize=auto;html=1;entryX=0;entryY=0.5;entryDx=0;entryDy=0;" edge="1" parent="1" source="exWmX4aVa_3qpyDqMsP1-20" target="exWmX4aVa_3qpyDqMsP1-24">
          <mxGeometry relative="1" as="geometry" />
        </mxCell>
        <mxCell id="exWmX4aVa_3qpyDqMsP1-20" value="&lt;font style=&quot;font-size: 25px&quot;&gt;10 20 30&lt;/font&gt;" style="text;html=1;strokeColor=none;fillColor=none;align=center;verticalAlign=middle;whiteSpace=wrap;rounded=0;" vertex="1" parent="1">
          <mxGeometry x="425" y="540" width="200" height="20" as="geometry" />
        </mxCell>
        <mxCell id="exWmX4aVa_3qpyDqMsP1-26" style="edgeStyle=orthogonalEdgeStyle;rounded=0;orthogonalLoop=1;jettySize=auto;html=1;entryX=1;entryY=0.5;entryDx=0;entryDy=0;" edge="1" parent="1" source="exWmX4aVa_3qpyDqMsP1-22" target="exWmX4aVa_3qpyDqMsP1-24">
          <mxGeometry relative="1" as="geometry" />
        </mxCell>
        <mxCell id="exWmX4aVa_3qpyDqMsP1-22" value="&lt;font style=&quot;font-size: 25px&quot;&gt;50 70&lt;/font&gt;" style="text;html=1;strokeColor=none;fillColor=none;align=center;verticalAlign=middle;whiteSpace=wrap;rounded=0;" vertex="1" parent="1">
          <mxGeometry x="675" y="540" width="100" height="20" as="geometry" />
        </mxCell>
        <mxCell id="exWmX4aVa_3qpyDqMsP1-24" value="Merge" style="rounded=0;whiteSpace=wrap;html=1;fillColor=#dae8fc;strokeColor=#6c8ebf;" vertex="1" parent="1">
          <mxGeometry x="565" y="580" width="120" height="50" as="geometry" />
        </mxCell>
        <mxCell id="exWmX4aVa_3qpyDqMsP1-29" value="" style="edgeStyle=orthogonalEdgeStyle;rounded=0;orthogonalLoop=1;jettySize=auto;html=1;" edge="1" parent="1" source="exWmX4aVa_3qpyDqMsP1-30" target="exWmX4aVa_3qpyDqMsP1-31">
          <mxGeometry relative="1" as="geometry" />
        </mxCell>
        <mxCell id="exWmX4aVa_3qpyDqMsP1-30" value="&lt;font style=&quot;font-size: 25px&quot;&gt;10 30 20 50 70&lt;/font&gt;" style="text;html=1;strokeColor=none;fillColor=none;align=center;verticalAlign=middle;whiteSpace=wrap;rounded=0;" vertex="1" parent="1">
          <mxGeometry x="50" y="390" width="240" height="20" as="geometry" />
        </mxCell>
        <mxCell id="exWmX4aVa_3qpyDqMsP1-31" value="MS" style="rounded=0;whiteSpace=wrap;html=1;fillColor=#dae8fc;strokeColor=#6c8ebf;" vertex="1" parent="1">
          <mxGeometry x="110" y="450" width="120" height="50" as="geometry" />
        </mxCell>
        <mxCell id="exWmX4aVa_3qpyDqMsP1-32" value="" style="shape=flexArrow;endArrow=classic;html=1;" edge="1" parent="1">
          <mxGeometry width="50" height="50" relative="1" as="geometry">
            <mxPoint x="280" y="480" as="sourcePoint" />
            <mxPoint x="440" y="480" as="targetPoint" />
          </mxGeometry>
        </mxCell>
        <mxCell id="exWmX4aVa_3qpyDqMsP1-33" value="Click on &quot;MS&quot;" style="text;html=1;strokeColor=none;fillColor=none;align=center;verticalAlign=middle;whiteSpace=wrap;rounded=0;" vertex="1" parent="1">
          <mxGeometry x="290" y="440" width="130" height="20" as="geometry" />
        </mxCell>
        <mxCell id="exWmX4aVa_3qpyDqMsP1-34" value="action: expand the MS box&amp;nbsp;" style="text;html=1;strokeColor=none;fillColor=none;align=center;verticalAlign=middle;whiteSpace=wrap;rounded=0;" vertex="1" parent="1">
          <mxGeometry x="290" y="500" width="130" height="20" as="geometry" />
        </mxCell>
        <mxCell id="exWmX4aVa_3qpyDqMsP1-68" value="" style="edgeStyle=orthogonalEdgeStyle;rounded=0;orthogonalLoop=1;jettySize=auto;html=1;" edge="1" parent="1" source="exWmX4aVa_3qpyDqMsP1-69" target="exWmX4aVa_3qpyDqMsP1-71">
          <mxGeometry relative="1" as="geometry" />
        </mxCell>
        <mxCell id="exWmX4aVa_3qpyDqMsP1-69" value="&lt;font style=&quot;font-size: 25px&quot;&gt;10 30 20 50 70&lt;/font&gt;" style="text;html=1;strokeColor=none;fillColor=none;align=center;verticalAlign=middle;whiteSpace=wrap;rounded=0;" vertex="1" parent="1">
          <mxGeometry x="100" y="720" width="240" height="20" as="geometry" />
        </mxCell>
        <mxCell id="exWmX4aVa_3qpyDqMsP1-70" value="" style="edgeStyle=orthogonalEdgeStyle;rounded=0;orthogonalLoop=1;jettySize=auto;html=1;" edge="1" parent="1" source="exWmX4aVa_3qpyDqMsP1-71" target="exWmX4aVa_3qpyDqMsP1-74">
          <mxGeometry relative="1" as="geometry">
            <Array as="points">
              <mxPoint x="220" y="850" />
              <mxPoint x="120" y="850" />
            </Array>
          </mxGeometry>
        </mxCell>
        <mxCell id="exWmX4aVa_3qpyDqMsP1-71" value="Split" style="rounded=0;whiteSpace=wrap;html=1;" vertex="1" parent="1">
          <mxGeometry x="160" y="780" width="120" height="50" as="geometry" />
        </mxCell>
        <mxCell id="exWmX4aVa_3qpyDqMsP1-72" value="" style="edgeStyle=orthogonalEdgeStyle;rounded=0;orthogonalLoop=1;jettySize=auto;html=1;exitX=0.5;exitY=1;exitDx=0;exitDy=0;" edge="1" parent="1" source="exWmX4aVa_3qpyDqMsP1-71" target="exWmX4aVa_3qpyDqMsP1-76">
          <mxGeometry relative="1" as="geometry">
            <mxPoint x="320" y="870" as="sourcePoint" />
            <Array as="points">
              <mxPoint x="220" y="850" />
              <mxPoint x="320" y="850" />
            </Array>
          </mxGeometry>
        </mxCell>
        <mxCell id="exWmX4aVa_3qpyDqMsP1-73" value="" style="edgeStyle=orthogonalEdgeStyle;rounded=0;orthogonalLoop=1;jettySize=auto;html=1;" edge="1" parent="1" source="exWmX4aVa_3qpyDqMsP1-74" target="exWmX4aVa_3qpyDqMsP1-78">
          <mxGeometry relative="1" as="geometry" />
        </mxCell>
        <mxCell id="exWmX4aVa_3qpyDqMsP1-74" value="&lt;font style=&quot;font-size: 25px&quot;&gt;10 30 20&lt;/font&gt;" style="text;html=1;strokeColor=none;fillColor=none;align=center;verticalAlign=middle;whiteSpace=wrap;rounded=0;" vertex="1" parent="1">
          <mxGeometry x="65" y="880" width="110" height="20" as="geometry" />
        </mxCell>
        <mxCell id="exWmX4aVa_3qpyDqMsP1-75" value="" style="edgeStyle=orthogonalEdgeStyle;rounded=0;orthogonalLoop=1;jettySize=auto;html=1;" edge="1" parent="1" source="exWmX4aVa_3qpyDqMsP1-76" target="exWmX4aVa_3qpyDqMsP1-80">
          <mxGeometry relative="1" as="geometry" />
        </mxCell>
        <mxCell id="exWmX4aVa_3qpyDqMsP1-76" value="&lt;font style=&quot;font-size: 25px&quot;&gt;50 70&lt;/font&gt;" style="text;html=1;strokeColor=none;fillColor=none;align=center;verticalAlign=middle;whiteSpace=wrap;rounded=0;" vertex="1" parent="1">
          <mxGeometry x="270" y="880" width="100" height="20" as="geometry" />
        </mxCell>
        <mxCell id="exWmX4aVa_3qpyDqMsP1-77" value="" style="edgeStyle=orthogonalEdgeStyle;rounded=0;orthogonalLoop=1;jettySize=auto;html=1;" edge="1" parent="1" source="exWmX4aVa_3qpyDqMsP1-78" target="exWmX4aVa_3qpyDqMsP1-82">
          <mxGeometry relative="1" as="geometry" />
        </mxCell>
        <mxCell id="exWmX4aVa_3qpyDqMsP1-78" value="MS" style="rounded=0;whiteSpace=wrap;html=1;fillColor=#dae8fc;strokeColor=#6c8ebf;" vertex="1" parent="1">
          <mxGeometry x="60" y="930" width="120" height="50" as="geometry" />
        </mxCell>
        <mxCell id="exWmX4aVa_3qpyDqMsP1-79" value="" style="edgeStyle=orthogonalEdgeStyle;rounded=0;orthogonalLoop=1;jettySize=auto;html=1;" edge="1" parent="1" source="exWmX4aVa_3qpyDqMsP1-80" target="exWmX4aVa_3qpyDqMsP1-84">
          <mxGeometry relative="1" as="geometry" />
        </mxCell>
        <mxCell id="exWmX4aVa_3qpyDqMsP1-80" value="MS" style="rounded=0;whiteSpace=wrap;html=1;fillColor=#dae8fc;strokeColor=#6c8ebf;" vertex="1" parent="1">
          <mxGeometry x="260" y="930" width="120" height="50" as="geometry" />
        </mxCell>
        <mxCell id="exWmX4aVa_3qpyDqMsP1-81" style="edgeStyle=orthogonalEdgeStyle;rounded=0;orthogonalLoop=1;jettySize=auto;html=1;entryX=0;entryY=0.5;entryDx=0;entryDy=0;" edge="1" parent="1" source="exWmX4aVa_3qpyDqMsP1-82" target="exWmX4aVa_3qpyDqMsP1-85">
          <mxGeometry relative="1" as="geometry" />
        </mxCell>
        <mxCell id="exWmX4aVa_3qpyDqMsP1-82" value="&lt;font style=&quot;font-size: 25px&quot;&gt;10 20 30&lt;/font&gt;" style="text;html=1;strokeColor=none;fillColor=none;align=center;verticalAlign=middle;whiteSpace=wrap;rounded=0;" vertex="1" parent="1">
          <mxGeometry x="65" y="1020" width="110" height="20" as="geometry" />
        </mxCell>
        <mxCell id="exWmX4aVa_3qpyDqMsP1-83" style="edgeStyle=orthogonalEdgeStyle;rounded=0;orthogonalLoop=1;jettySize=auto;html=1;entryX=1;entryY=0.5;entryDx=0;entryDy=0;" edge="1" parent="1" source="exWmX4aVa_3qpyDqMsP1-84" target="exWmX4aVa_3qpyDqMsP1-85">
          <mxGeometry relative="1" as="geometry" />
        </mxCell>
        <mxCell id="exWmX4aVa_3qpyDqMsP1-84" value="&lt;font style=&quot;font-size: 25px&quot;&gt;50 70&lt;/font&gt;" style="text;html=1;strokeColor=none;fillColor=none;align=center;verticalAlign=middle;whiteSpace=wrap;rounded=0;" vertex="1" parent="1">
          <mxGeometry x="270" y="1020" width="100" height="20" as="geometry" />
        </mxCell>
        <mxCell id="exWmX4aVa_3qpyDqMsP1-85" value="Merge" style="rounded=0;whiteSpace=wrap;html=1;fillColor=#dae8fc;strokeColor=#6c8ebf;" vertex="1" parent="1">
          <mxGeometry x="160" y="1060" width="120" height="50" as="geometry" />
        </mxCell>
        <mxCell id="exWmX4aVa_3qpyDqMsP1-86" value="" style="shape=flexArrow;endArrow=classic;html=1;" edge="1" parent="1">
          <mxGeometry width="50" height="50" relative="1" as="geometry">
            <mxPoint x="400" y="955" as="sourcePoint" />
            <mxPoint x="520" y="955" as="targetPoint" />
          </mxGeometry>
        </mxCell>
        <mxCell id="exWmX4aVa_3qpyDqMsP1-87" value="Click on &quot;Merge&quot;" style="text;html=1;strokeColor=none;fillColor=none;align=center;verticalAlign=middle;whiteSpace=wrap;rounded=0;" vertex="1" parent="1">
          <mxGeometry x="410" y="915" width="100" height="20" as="geometry" />
        </mxCell>
        <mxCell id="exWmX4aVa_3qpyDqMsP1-88" value="action: merge the arrays in the incoming nodes" style="text;html=1;strokeColor=none;fillColor=none;align=center;verticalAlign=middle;whiteSpace=wrap;rounded=0;" vertex="1" parent="1">
          <mxGeometry x="410" y="975" width="90" height="20" as="geometry" />
        </mxCell>
        <mxCell id="exWmX4aVa_3qpyDqMsP1-89" value="" style="edgeStyle=orthogonalEdgeStyle;rounded=0;orthogonalLoop=1;jettySize=auto;html=1;" edge="1" parent="1" source="exWmX4aVa_3qpyDqMsP1-90" target="exWmX4aVa_3qpyDqMsP1-92">
          <mxGeometry relative="1" as="geometry" />
        </mxCell>
        <mxCell id="exWmX4aVa_3qpyDqMsP1-90" value="&lt;font style=&quot;font-size: 25px&quot;&gt;10 30 20 50 70&lt;/font&gt;" style="text;html=1;strokeColor=none;fillColor=none;align=center;verticalAlign=middle;whiteSpace=wrap;rounded=0;" vertex="1" parent="1">
          <mxGeometry x="570" y="720" width="240" height="20" as="geometry" />
        </mxCell>
        <mxCell id="exWmX4aVa_3qpyDqMsP1-91" value="" style="edgeStyle=orthogonalEdgeStyle;rounded=0;orthogonalLoop=1;jettySize=auto;html=1;" edge="1" parent="1" source="exWmX4aVa_3qpyDqMsP1-92" target="exWmX4aVa_3qpyDqMsP1-95">
          <mxGeometry relative="1" as="geometry">
            <Array as="points">
              <mxPoint x="690" y="850" />
              <mxPoint x="590" y="850" />
            </Array>
          </mxGeometry>
        </mxCell>
        <mxCell id="exWmX4aVa_3qpyDqMsP1-92" value="Split" style="rounded=0;whiteSpace=wrap;html=1;" vertex="1" parent="1">
          <mxGeometry x="630" y="780" width="120" height="50" as="geometry" />
        </mxCell>
        <mxCell id="exWmX4aVa_3qpyDqMsP1-93" value="" style="edgeStyle=orthogonalEdgeStyle;rounded=0;orthogonalLoop=1;jettySize=auto;html=1;exitX=0.5;exitY=1;exitDx=0;exitDy=0;" edge="1" parent="1" source="exWmX4aVa_3qpyDqMsP1-92" target="exWmX4aVa_3qpyDqMsP1-97">
          <mxGeometry relative="1" as="geometry">
            <mxPoint x="790" y="870" as="sourcePoint" />
            <Array as="points">
              <mxPoint x="690" y="850" />
              <mxPoint x="790" y="850" />
            </Array>
          </mxGeometry>
        </mxCell>
        <mxCell id="exWmX4aVa_3qpyDqMsP1-94" value="" style="edgeStyle=orthogonalEdgeStyle;rounded=0;orthogonalLoop=1;jettySize=auto;html=1;" edge="1" parent="1" source="exWmX4aVa_3qpyDqMsP1-95" target="exWmX4aVa_3qpyDqMsP1-99">
          <mxGeometry relative="1" as="geometry" />
        </mxCell>
        <mxCell id="exWmX4aVa_3qpyDqMsP1-95" value="&lt;font style=&quot;font-size: 25px&quot;&gt;10 30 20&lt;/font&gt;" style="text;html=1;strokeColor=none;fillColor=none;align=center;verticalAlign=middle;whiteSpace=wrap;rounded=0;" vertex="1" parent="1">
          <mxGeometry x="535" y="890" width="110" height="20" as="geometry" />
        </mxCell>
        <mxCell id="exWmX4aVa_3qpyDqMsP1-96" value="" style="edgeStyle=orthogonalEdgeStyle;rounded=0;orthogonalLoop=1;jettySize=auto;html=1;" edge="1" parent="1" source="exWmX4aVa_3qpyDqMsP1-97" target="exWmX4aVa_3qpyDqMsP1-101">
          <mxGeometry relative="1" as="geometry" />
        </mxCell>
        <mxCell id="exWmX4aVa_3qpyDqMsP1-97" value="&lt;font style=&quot;font-size: 25px&quot;&gt;50 70&lt;/font&gt;" style="text;html=1;strokeColor=none;fillColor=none;align=center;verticalAlign=middle;whiteSpace=wrap;rounded=0;" vertex="1" parent="1">
          <mxGeometry x="740" y="880" width="100" height="20" as="geometry" />
        </mxCell>
        <mxCell id="exWmX4aVa_3qpyDqMsP1-98" value="" style="edgeStyle=orthogonalEdgeStyle;rounded=0;orthogonalLoop=1;jettySize=auto;html=1;" edge="1" parent="1" source="exWmX4aVa_3qpyDqMsP1-99" target="exWmX4aVa_3qpyDqMsP1-103">
          <mxGeometry relative="1" as="geometry" />
        </mxCell>
        <mxCell id="exWmX4aVa_3qpyDqMsP1-99" value="MS" style="rounded=0;whiteSpace=wrap;html=1;fillColor=#dae8fc;strokeColor=#6c8ebf;" vertex="1" parent="1">
          <mxGeometry x="530" y="930" width="120" height="50" as="geometry" />
        </mxCell>
        <mxCell id="exWmX4aVa_3qpyDqMsP1-100" value="" style="edgeStyle=orthogonalEdgeStyle;rounded=0;orthogonalLoop=1;jettySize=auto;html=1;" edge="1" parent="1" source="exWmX4aVa_3qpyDqMsP1-101" target="exWmX4aVa_3qpyDqMsP1-105">
          <mxGeometry relative="1" as="geometry" />
        </mxCell>
        <mxCell id="exWmX4aVa_3qpyDqMsP1-101" value="MS" style="rounded=0;whiteSpace=wrap;html=1;fillColor=#dae8fc;strokeColor=#6c8ebf;" vertex="1" parent="1">
          <mxGeometry x="730" y="930" width="120" height="50" as="geometry" />
        </mxCell>
        <mxCell id="exWmX4aVa_3qpyDqMsP1-102" style="edgeStyle=orthogonalEdgeStyle;rounded=0;orthogonalLoop=1;jettySize=auto;html=1;entryX=0;entryY=0.5;entryDx=0;entryDy=0;" edge="1" parent="1" source="exWmX4aVa_3qpyDqMsP1-103" target="exWmX4aVa_3qpyDqMsP1-106">
          <mxGeometry relative="1" as="geometry" />
        </mxCell>
        <mxCell id="exWmX4aVa_3qpyDqMsP1-103" value="&lt;font style=&quot;font-size: 25px&quot;&gt;10 20 30&lt;/font&gt;" style="text;html=1;strokeColor=none;fillColor=none;align=center;verticalAlign=middle;whiteSpace=wrap;rounded=0;" vertex="1" parent="1">
          <mxGeometry x="540" y="1020" width="100" height="20" as="geometry" />
        </mxCell>
        <mxCell id="exWmX4aVa_3qpyDqMsP1-104" style="edgeStyle=orthogonalEdgeStyle;rounded=0;orthogonalLoop=1;jettySize=auto;html=1;entryX=1;entryY=0.5;entryDx=0;entryDy=0;" edge="1" parent="1" source="exWmX4aVa_3qpyDqMsP1-105" target="exWmX4aVa_3qpyDqMsP1-106">
          <mxGeometry relative="1" as="geometry" />
        </mxCell>
        <mxCell id="exWmX4aVa_3qpyDqMsP1-105" value="&lt;font style=&quot;font-size: 25px&quot;&gt;50 70&lt;/font&gt;" style="text;html=1;strokeColor=none;fillColor=none;align=center;verticalAlign=middle;whiteSpace=wrap;rounded=0;" vertex="1" parent="1">
          <mxGeometry x="740" y="1020" width="100" height="20" as="geometry" />
        </mxCell>
        <mxCell id="exWmX4aVa_3qpyDqMsP1-108" value="" style="edgeStyle=orthogonalEdgeStyle;rounded=0;orthogonalLoop=1;jettySize=auto;html=1;" edge="1" parent="1" source="exWmX4aVa_3qpyDqMsP1-106" target="exWmX4aVa_3qpyDqMsP1-107">
          <mxGeometry relative="1" as="geometry" />
        </mxCell>
        <mxCell id="exWmX4aVa_3qpyDqMsP1-106" value="Merge" style="rounded=0;whiteSpace=wrap;html=1;" vertex="1" parent="1">
          <mxGeometry x="630" y="1060" width="120" height="50" as="geometry" />
        </mxCell>
        <mxCell id="exWmX4aVa_3qpyDqMsP1-107" value="&lt;font style=&quot;font-size: 25px&quot;&gt;10 20 30 50 70&lt;/font&gt;" style="text;html=1;strokeColor=none;fillColor=none;align=center;verticalAlign=middle;whiteSpace=wrap;rounded=0;" vertex="1" parent="1">
          <mxGeometry x="590" y="1170" width="200" height="20" as="geometry" />
        </mxCell>
      </root>
    </mxGraphModel>
  </diagram>
  <diagram id="ADr2Pkh4fD1_zN8xfCat" name="visual representations">
    <mxGraphModel dx="1102" dy="581" grid="1" gridSize="10" guides="1" tooltips="1" connect="1" arrows="1" fold="1" page="1" pageScale="1" pageWidth="850" pageHeight="1100" math="0" shadow="0">
      <root>
        <mxCell id="IgAn9OaCzRW63d76Hr-A-0" />
        <mxCell id="IgAn9OaCzRW63d76Hr-A-1" parent="IgAn9OaCzRW63d76Hr-A-0" />
        <mxCell id="IgAn9OaCzRW63d76Hr-A-2" value="&lt;font style=&quot;font-size: 25px&quot;&gt;f&lt;/font&gt;" style="rounded=0;whiteSpace=wrap;html=1;strokeWidth=2;fillColor=#f5f5f5;fontColor=#333333;strokeColor=none;" vertex="1" parent="IgAn9OaCzRW63d76Hr-A-1">
          <mxGeometry x="140" y="240" width="120" height="40" as="geometry" />
        </mxCell>
        <mxCell id="IgAn9OaCzRW63d76Hr-A-4" value="" style="edgeStyle=orthogonalEdgeStyle;rounded=0;orthogonalLoop=1;jettySize=auto;html=1;" edge="1" parent="IgAn9OaCzRW63d76Hr-A-1" target="IgAn9OaCzRW63d76Hr-A-2">
          <mxGeometry relative="1" as="geometry">
            <mxPoint x="200" y="200" as="sourcePoint" />
          </mxGeometry>
        </mxCell>
        <mxCell id="IgAn9OaCzRW63d76Hr-A-13" value="" style="edgeStyle=orthogonalEdgeStyle;rounded=0;orthogonalLoop=1;jettySize=auto;html=1;entryX=0.75;entryY=0;entryDx=0;entryDy=0;" edge="1" parent="IgAn9OaCzRW63d76Hr-A-1" target="IgAn9OaCzRW63d76Hr-A-2">
          <mxGeometry relative="1" as="geometry">
            <mxPoint x="230" y="200" as="sourcePoint" />
            <mxPoint x="229.5" y="250" as="targetPoint" />
          </mxGeometry>
        </mxCell>
        <mxCell id="IgAn9OaCzRW63d76Hr-A-14" value="" style="edgeStyle=orthogonalEdgeStyle;rounded=0;orthogonalLoop=1;jettySize=auto;html=1;entryX=0.25;entryY=0;entryDx=0;entryDy=0;" edge="1" parent="IgAn9OaCzRW63d76Hr-A-1" target="IgAn9OaCzRW63d76Hr-A-2">
          <mxGeometry relative="1" as="geometry">
            <mxPoint x="170" y="200" as="sourcePoint" />
            <mxPoint x="240" y="250" as="targetPoint" />
          </mxGeometry>
        </mxCell>
        <mxCell id="IgAn9OaCzRW63d76Hr-A-15" value="" style="shape=curlyBracket;whiteSpace=wrap;html=1;rounded=1;strokeColor=#3333FF;strokeWidth=2;fillColor=#E1D5E7;direction=south;size=0.5;" vertex="1" parent="IgAn9OaCzRW63d76Hr-A-1">
          <mxGeometry x="140" y="170" width="120" height="20" as="geometry" />
        </mxCell>
        <mxCell id="IgAn9OaCzRW63d76Hr-A-16" value="&lt;font style=&quot;font-size: 18px&quot;&gt;Incoming Edges (arguments)&lt;/font&gt;" style="text;html=1;strokeColor=none;fillColor=none;align=center;verticalAlign=middle;whiteSpace=wrap;rounded=0;" vertex="1" parent="IgAn9OaCzRW63d76Hr-A-1">
          <mxGeometry x="122.5" y="120" width="155" height="50" as="geometry" />
        </mxCell>
        <mxCell id="IgAn9OaCzRW63d76Hr-A-18" value="" style="shape=curlyBracket;whiteSpace=wrap;html=1;rounded=1;strokeColor=#3333FF;strokeWidth=2;fillColor=#E1D5E7;direction=north;size=0.5;" vertex="1" parent="IgAn9OaCzRW63d76Hr-A-1">
          <mxGeometry x="137.5" y="300" width="120" height="20" as="geometry" />
        </mxCell>
        <mxCell id="IgAn9OaCzRW63d76Hr-A-19" value="&lt;font style=&quot;font-size: 18px&quot;&gt;No Outgoing Edges&lt;/font&gt;" style="text;html=1;strokeColor=none;fillColor=none;align=center;verticalAlign=middle;whiteSpace=wrap;rounded=0;" vertex="1" parent="IgAn9OaCzRW63d76Hr-A-1">
          <mxGeometry x="120" y="340" width="155" height="20" as="geometry" />
        </mxCell>
        <mxCell id="IgAn9OaCzRW63d76Hr-A-20" value="Applicable Function Node" style="text;html=1;strokeColor=none;fillColor=none;align=center;verticalAlign=middle;whiteSpace=wrap;rounded=0;" vertex="1" parent="IgAn9OaCzRW63d76Hr-A-1">
          <mxGeometry x="102" y="400" width="191" height="20" as="geometry" />
        </mxCell>
        <mxCell id="IgAn9OaCzRW63d76Hr-A-31" value="" style="edgeStyle=orthogonalEdgeStyle;rounded=0;orthogonalLoop=1;jettySize=auto;html=1;" edge="1" parent="IgAn9OaCzRW63d76Hr-A-1" source="IgAn9OaCzRW63d76Hr-A-22">
          <mxGeometry relative="1" as="geometry">
            <mxPoint x="558" y="310" as="targetPoint" />
          </mxGeometry>
        </mxCell>
        <mxCell id="IgAn9OaCzRW63d76Hr-A-22" value="&lt;font style=&quot;font-size: 25px&quot;&gt;f&lt;/font&gt;" style="rounded=0;whiteSpace=wrap;html=1;strokeWidth=2;fillColor=#f5f5f5;fontColor=#333333;strokeColor=none;" vertex="1" parent="IgAn9OaCzRW63d76Hr-A-1">
          <mxGeometry x="498" y="240" width="120" height="40" as="geometry" />
        </mxCell>
        <mxCell id="IgAn9OaCzRW63d76Hr-A-23" value="" style="edgeStyle=orthogonalEdgeStyle;rounded=0;orthogonalLoop=1;jettySize=auto;html=1;" edge="1" parent="IgAn9OaCzRW63d76Hr-A-1" target="IgAn9OaCzRW63d76Hr-A-22">
          <mxGeometry relative="1" as="geometry">
            <mxPoint x="558" y="200" as="sourcePoint" />
          </mxGeometry>
        </mxCell>
        <mxCell id="IgAn9OaCzRW63d76Hr-A-24" value="" style="edgeStyle=orthogonalEdgeStyle;rounded=0;orthogonalLoop=1;jettySize=auto;html=1;entryX=0.75;entryY=0;entryDx=0;entryDy=0;" edge="1" parent="IgAn9OaCzRW63d76Hr-A-1" target="IgAn9OaCzRW63d76Hr-A-22">
          <mxGeometry relative="1" as="geometry">
            <mxPoint x="588" y="200" as="sourcePoint" />
            <mxPoint x="587.5" y="250" as="targetPoint" />
          </mxGeometry>
        </mxCell>
        <mxCell id="IgAn9OaCzRW63d76Hr-A-25" value="" style="edgeStyle=orthogonalEdgeStyle;rounded=0;orthogonalLoop=1;jettySize=auto;html=1;entryX=0.25;entryY=0;entryDx=0;entryDy=0;" edge="1" parent="IgAn9OaCzRW63d76Hr-A-1" target="IgAn9OaCzRW63d76Hr-A-22">
          <mxGeometry relative="1" as="geometry">
            <mxPoint x="528" y="200" as="sourcePoint" />
            <mxPoint x="598" y="250" as="targetPoint" />
          </mxGeometry>
        </mxCell>
        <mxCell id="IgAn9OaCzRW63d76Hr-A-26" value="" style="shape=curlyBracket;whiteSpace=wrap;html=1;rounded=1;strokeColor=#3333FF;strokeWidth=2;fillColor=#E1D5E7;direction=south;size=0.5;" vertex="1" parent="IgAn9OaCzRW63d76Hr-A-1">
          <mxGeometry x="498" y="170" width="120" height="20" as="geometry" />
        </mxCell>
        <mxCell id="IgAn9OaCzRW63d76Hr-A-27" value="&lt;font style=&quot;font-size: 18px&quot;&gt;Incoming Edges (arguments)&lt;/font&gt;" style="text;html=1;strokeColor=none;fillColor=none;align=center;verticalAlign=middle;whiteSpace=wrap;rounded=0;" vertex="1" parent="IgAn9OaCzRW63d76Hr-A-1">
          <mxGeometry x="478" y="140" width="155" height="20" as="geometry" />
        </mxCell>
        <mxCell id="IgAn9OaCzRW63d76Hr-A-28" value="" style="shape=curlyBracket;whiteSpace=wrap;html=1;rounded=1;strokeColor=#3333FF;strokeWidth=2;fillColor=#E1D5E7;direction=north;size=0.5;" vertex="1" parent="IgAn9OaCzRW63d76Hr-A-1">
          <mxGeometry x="495.5" y="320" width="120" height="20" as="geometry" />
        </mxCell>
        <mxCell id="IgAn9OaCzRW63d76Hr-A-29" value="&lt;font style=&quot;font-size: 18px&quot;&gt;Outgoing Edges (result)&lt;/font&gt;" style="text;html=1;strokeColor=none;fillColor=none;align=center;verticalAlign=middle;whiteSpace=wrap;rounded=0;" vertex="1" parent="IgAn9OaCzRW63d76Hr-A-1">
          <mxGeometry x="480.5" y="340" width="155" height="50" as="geometry" />
        </mxCell>
        <mxCell id="IgAn9OaCzRW63d76Hr-A-30" value="Applied Function Node" style="text;html=1;strokeColor=none;fillColor=none;align=center;verticalAlign=middle;whiteSpace=wrap;rounded=0;" vertex="1" parent="IgAn9OaCzRW63d76Hr-A-1">
          <mxGeometry x="460" y="400" width="191" height="20" as="geometry" />
        </mxCell>
        <mxCell id="IgAn9OaCzRW63d76Hr-A-32" value="&lt;font style=&quot;font-size: 25px&quot;&gt;f&lt;/font&gt;" style="rounded=0;whiteSpace=wrap;html=1;strokeWidth=2;fillColor=#dae8fc;strokeColor=none;" vertex="1" parent="IgAn9OaCzRW63d76Hr-A-1">
          <mxGeometry x="140" y="520" width="120" height="40" as="geometry" />
        </mxCell>
        <mxCell id="IgAn9OaCzRW63d76Hr-A-33" value="&lt;font style=&quot;font-size: 25px&quot;&gt;f&lt;/font&gt;" style="rounded=0;whiteSpace=wrap;html=1;strokeWidth=2;fillColor=#e1d5e7;strokeColor=none;" vertex="1" parent="IgAn9OaCzRW63d76Hr-A-1">
          <mxGeometry x="495.5" y="520" width="120" height="40" as="geometry" />
        </mxCell>
        <mxCell id="IgAn9OaCzRW63d76Hr-A-34" value="Composite Function Node (color = CBX_C)" style="text;html=1;strokeColor=none;fillColor=none;align=center;verticalAlign=middle;whiteSpace=wrap;rounded=0;fontSize=15;" vertex="1" parent="IgAn9OaCzRW63d76Hr-A-1">
          <mxGeometry x="105.88" y="560" width="183.25" height="50" as="geometry" />
        </mxCell>
        <mxCell id="IgAn9OaCzRW63d76Hr-A-35" value="Primitive Function Node (color = CBX_P)" style="text;html=1;strokeColor=none;fillColor=none;align=center;verticalAlign=middle;whiteSpace=wrap;rounded=0;fontSize=15;" vertex="1" parent="IgAn9OaCzRW63d76Hr-A-1">
          <mxGeometry x="471.94" y="560" width="167.12" height="50" as="geometry" />
        </mxCell>
        <mxCell id="IgAn9OaCzRW63d76Hr-A-36" value="A composite function node is expandable." style="text;html=1;strokeColor=none;fillColor=none;align=center;verticalAlign=middle;whiteSpace=wrap;rounded=0;fontSize=15;fontStyle=2" vertex="1" parent="IgAn9OaCzRW63d76Hr-A-1">
          <mxGeometry x="277.5" y="515" width="146.5" height="50" as="geometry" />
        </mxCell>
      </root>
    </mxGraphModel>
  </diagram>
</mxfile>
